<svg width="431" height="312" viewBox="0 0 431 312" fill="none" xmlns="http://www.w3.org/2000/svg">
<path d="M13.3945 300.078V308.656H12.3105V301.432L10.125 302.229V301.25L13.2246 300.078H13.3945ZM21.9375 303.711V305.012C21.9375 305.711 21.875 306.301 21.75 306.781C21.625 307.262 21.4453 307.648 21.2109 307.941C20.9766 308.234 20.6934 308.447 20.3613 308.58C20.0332 308.709 19.6621 308.773 19.248 308.773C18.9199 308.773 18.6172 308.732 18.3398 308.65C18.0625 308.568 17.8125 308.438 17.5898 308.258C17.3711 308.074 17.1836 307.836 17.0273 307.543C16.8711 307.25 16.752 306.895 16.6699 306.477C16.5879 306.059 16.5469 305.57 16.5469 305.012V303.711C16.5469 303.012 16.6094 302.426 16.7344 301.953C16.8633 301.48 17.0449 301.102 17.2793 300.816C17.5137 300.527 17.7949 300.32 18.123 300.195C18.4551 300.07 18.8262 300.008 19.2363 300.008C19.5684 300.008 19.873 300.049 20.1504 300.131C20.4316 300.209 20.6816 300.336 20.9004 300.512C21.1191 300.684 21.3047 300.914 21.457 301.203C21.6133 301.488 21.7324 301.838 21.8145 302.252C21.8965 302.666 21.9375 303.152 21.9375 303.711ZM20.8477 305.188V303.529C20.8477 303.146 20.8242 302.811 20.7773 302.521C20.7344 302.229 20.6699 301.979 20.584 301.771C20.498 301.564 20.3887 301.396 20.2559 301.268C20.127 301.139 19.9766 301.045 19.8047 300.986C19.6367 300.924 19.4473 300.893 19.2363 300.893C18.9785 300.893 18.75 300.941 18.5508 301.039C18.3516 301.133 18.1836 301.283 18.0469 301.49C17.9141 301.697 17.8125 301.969 17.7422 302.305C17.6719 302.641 17.6367 303.049 17.6367 303.529V305.188C17.6367 305.57 17.6582 305.908 17.7012 306.201C17.748 306.494 17.8164 306.748 17.9062 306.963C17.9961 307.174 18.1055 307.348 18.2344 307.484C18.3633 307.621 18.5117 307.723 18.6797 307.789C18.8516 307.852 19.041 307.883 19.248 307.883C19.5137 307.883 19.7461 307.832 19.9453 307.73C20.1445 307.629 20.3105 307.471 20.4434 307.256C20.5801 307.037 20.6816 306.758 20.748 306.418C20.8145 306.074 20.8477 305.664 20.8477 305.188ZM23.4023 308.082C23.4023 307.898 23.459 307.744 23.5723 307.619C23.6895 307.49 23.8574 307.426 24.0762 307.426C24.2949 307.426 24.4609 307.49 24.5742 307.619C24.6914 307.744 24.75 307.898 24.75 308.082C24.75 308.262 24.6914 308.414 24.5742 308.539C24.4609 308.664 24.2949 308.727 24.0762 308.727C23.8574 308.727 23.6895 308.664 23.5723 308.539C23.459 308.414 23.4023 308.262 23.4023 308.082ZM23.4082 302.908C23.4082 302.725 23.4648 302.57 23.5781 302.445C23.6953 302.316 23.8633 302.252 24.082 302.252C24.3008 302.252 24.4668 302.316 24.5801 302.445C24.6973 302.57 24.7559 302.725 24.7559 302.908C24.7559 303.088 24.6973 303.24 24.5801 303.365C24.4668 303.49 24.3008 303.553 24.082 303.553C23.8633 303.553 23.6953 303.49 23.5781 303.365C23.4648 303.24 23.4082 303.088 23.4082 302.908ZM27.8203 303.857H28.5938C28.9727 303.857 29.2852 303.795 29.5312 303.67C29.7812 303.541 29.9668 303.367 30.0879 303.148C30.2129 302.926 30.2754 302.676 30.2754 302.398C30.2754 302.07 30.2207 301.795 30.1113 301.572C30.002 301.35 29.8379 301.182 29.6191 301.068C29.4004 300.955 29.123 300.898 28.7871 300.898C28.4824 300.898 28.2129 300.959 27.9785 301.08C27.748 301.197 27.5664 301.365 27.4336 301.584C27.3047 301.803 27.2402 302.061 27.2402 302.357H26.1562C26.1562 301.924 26.2656 301.529 26.4844 301.174C26.7031 300.818 27.0098 300.535 27.4043 300.324C27.8027 300.113 28.2637 300.008 28.7871 300.008C29.3027 300.008 29.7539 300.1 30.1406 300.283C30.5273 300.463 30.8281 300.732 31.043 301.092C31.2578 301.447 31.3652 301.891 31.3652 302.422C31.3652 302.637 31.3145 302.867 31.2129 303.113C31.1152 303.355 30.9609 303.582 30.75 303.793C30.543 304.004 30.2734 304.178 29.9414 304.314C29.6094 304.447 29.2109 304.514 28.7461 304.514H27.8203V303.857ZM27.8203 304.748V304.098H28.7461C29.2891 304.098 29.7383 304.162 30.0938 304.291C30.4492 304.42 30.7285 304.592 30.9316 304.807C31.1387 305.021 31.2832 305.258 31.3652 305.516C31.4512 305.77 31.4941 306.023 31.4941 306.277C31.4941 306.676 31.4258 307.029 31.2891 307.338C31.1562 307.646 30.9668 307.908 30.7207 308.123C30.4785 308.338 30.1934 308.5 29.8652 308.609C29.5371 308.719 29.1797 308.773 28.793 308.773C28.4219 308.773 28.0723 308.721 27.7441 308.615C27.4199 308.51 27.1328 308.357 26.8828 308.158C26.6328 307.955 26.4375 307.707 26.2969 307.414C26.1562 307.117 26.0859 306.779 26.0859 306.4H27.1699C27.1699 306.697 27.2344 306.957 27.3633 307.18C27.4961 307.402 27.6836 307.576 27.9258 307.701C28.1719 307.822 28.4609 307.883 28.793 307.883C29.125 307.883 29.4102 307.826 29.6484 307.713C29.8906 307.596 30.0762 307.42 30.2051 307.186C30.3379 306.951 30.4043 306.656 30.4043 306.301C30.4043 305.945 30.3301 305.654 30.1816 305.428C30.0332 305.197 29.8223 305.027 29.5488 304.918C29.2793 304.805 28.9609 304.748 28.5938 304.748H27.8203ZM38.3438 303.711V305.012C38.3438 305.711 38.2812 306.301 38.1562 306.781C38.0312 307.262 37.8516 307.648 37.6172 307.941C37.3828 308.234 37.0996 308.447 36.7676 308.58C36.4395 308.709 36.0684 308.773 35.6543 308.773C35.3262 308.773 35.0234 308.732 34.7461 308.65C34.4688 308.568 34.2188 308.438 33.9961 308.258C33.7773 308.074 33.5898 307.836 33.4336 307.543C33.2773 307.25 33.1582 306.895 33.0762 306.477C32.9941 306.059 32.9531 305.57 32.9531 305.012V303.711C32.9531 303.012 33.0156 302.426 33.1406 301.953C33.2695 301.48 33.4512 301.102 33.6855 300.816C33.9199 300.527 34.2012 300.32 34.5293 300.195C34.8613 300.07 35.2324 300.008 35.6426 300.008C35.9746 300.008 36.2793 300.049 36.5566 300.131C36.8379 300.209 37.0879 300.336 37.3066 300.512C37.5254 300.684 37.7109 300.914 37.8633 301.203C38.0195 301.488 38.1387 301.838 38.2207 302.252C38.3027 302.666 38.3438 303.152 38.3438 303.711ZM37.2539 305.188V303.529C37.2539 303.146 37.2305 302.811 37.1836 302.521C37.1406 302.229 37.0762 301.979 36.9902 301.771C36.9043 301.564 36.7949 301.396 36.6621 301.268C36.5332 301.139 36.3828 301.045 36.2109 300.986C36.043 300.924 35.8535 300.893 35.6426 300.893C35.3848 300.893 35.1562 300.941 34.957 301.039C34.7578 301.133 34.5898 301.283 34.4531 301.49C34.3203 301.697 34.2188 301.969 34.1484 302.305C34.0781 302.641 34.043 303.049 34.043 303.529V305.188C34.043 305.57 34.0645 305.908 34.1074 306.201C34.1543 306.494 34.2227 306.748 34.3125 306.963C34.4023 307.174 34.5117 307.348 34.6406 307.484C34.7695 307.621 34.918 307.723 35.0859 307.789C35.2578 307.852 35.4473 307.883 35.6543 307.883C35.9199 307.883 36.1523 307.832 36.3516 307.73C36.5508 307.629 36.7168 307.471 36.8496 307.256C36.9863 307.037 37.0879 306.758 37.1543 306.418C37.2207 306.074 37.2539 305.664 37.2539 305.188Z" fill="#A4A4A4"/>
<path d="M81.7705 300.078V308.656H80.6866V301.432L78.501 302.229V301.25L81.6006 300.078H81.7705ZM88.5205 300.078V308.656H87.4366V301.432L85.251 302.229V301.25L88.3506 300.078H88.5205ZM91.7784 308.082C91.7784 307.898 91.835 307.744 91.9483 307.619C92.0655 307.49 92.2334 307.426 92.4522 307.426C92.6709 307.426 92.8369 307.49 92.9502 307.619C93.0674 307.744 93.126 307.898 93.126 308.082C93.126 308.262 93.0674 308.414 92.9502 308.539C92.8369 308.664 92.6709 308.727 92.4522 308.727C92.2334 308.727 92.0655 308.664 91.9483 308.539C91.835 308.414 91.7784 308.262 91.7784 308.082ZM91.7842 302.908C91.7842 302.725 91.8409 302.57 91.9541 302.445C92.0713 302.316 92.2393 302.252 92.458 302.252C92.6768 302.252 92.8428 302.316 92.9561 302.445C93.0733 302.57 93.1319 302.725 93.1319 302.908C93.1319 303.088 93.0733 303.24 92.9561 303.365C92.8428 303.49 92.6768 303.553 92.458 303.553C92.2393 303.553 92.0713 303.49 91.9541 303.365C91.8409 303.24 91.7842 303.088 91.7842 302.908ZM99.9698 303.711V305.012C99.9698 305.711 99.9073 306.301 99.7823 306.781C99.6573 307.262 99.4776 307.648 99.2432 307.941C99.0088 308.234 98.7256 308.447 98.3936 308.58C98.0655 308.709 97.6944 308.773 97.2803 308.773C96.9522 308.773 96.6494 308.732 96.3721 308.65C96.0948 308.568 95.8448 308.438 95.6221 308.258C95.4034 308.074 95.2159 307.836 95.0596 307.543C94.9034 307.25 94.7842 306.895 94.7022 306.477C94.6201 306.059 94.5791 305.57 94.5791 305.012V303.711C94.5791 303.012 94.6416 302.426 94.7666 301.953C94.8955 301.48 95.0772 301.102 95.3116 300.816C95.5459 300.527 95.8272 300.32 96.1553 300.195C96.4873 300.07 96.8584 300.008 97.2686 300.008C97.6006 300.008 97.9053 300.049 98.1826 300.131C98.4639 300.209 98.7139 300.336 98.9326 300.512C99.1514 300.684 99.3369 300.914 99.4893 301.203C99.6455 301.488 99.7647 301.838 99.8467 302.252C99.9287 302.666 99.9698 303.152 99.9698 303.711ZM98.8799 305.188V303.529C98.8799 303.146 98.8565 302.811 98.8096 302.521C98.7666 302.229 98.7022 301.979 98.6162 301.771C98.5303 301.564 98.4209 301.396 98.2881 301.268C98.1592 301.139 98.0088 301.045 97.8369 300.986C97.669 300.924 97.4795 300.893 97.2686 300.893C97.0108 300.893 96.7823 300.941 96.583 301.039C96.3838 301.133 96.2159 301.283 96.0791 301.49C95.9463 301.697 95.8448 301.969 95.7744 302.305C95.7041 302.641 95.669 303.049 95.669 303.529V305.188C95.669 305.57 95.6905 305.908 95.7334 306.201C95.7803 306.494 95.8487 306.748 95.9385 306.963C96.0284 307.174 96.1377 307.348 96.2666 307.484C96.3955 307.621 96.544 307.723 96.7119 307.789C96.8838 307.852 97.0733 307.883 97.2803 307.883C97.5459 307.883 97.7784 307.832 97.9776 307.73C98.1768 307.629 98.3428 307.471 98.4756 307.256C98.6123 307.037 98.7139 306.758 98.7803 306.418C98.8467 306.074 98.8799 305.664 98.8799 305.188ZM106.72 303.711V305.012C106.72 305.711 106.657 306.301 106.532 306.781C106.407 307.262 106.228 307.648 105.993 307.941C105.759 308.234 105.476 308.447 105.144 308.58C104.815 308.709 104.444 308.773 104.03 308.773C103.702 308.773 103.399 308.732 103.122 308.65C102.845 308.568 102.595 308.438 102.372 308.258C102.153 308.074 101.966 307.836 101.81 307.543C101.653 307.25 101.534 306.895 101.452 306.477C101.37 306.059 101.329 305.57 101.329 305.012V303.711C101.329 303.012 101.392 302.426 101.517 301.953C101.646 301.48 101.827 301.102 102.062 300.816C102.296 300.527 102.577 300.32 102.905 300.195C103.237 300.07 103.608 300.008 104.019 300.008C104.351 300.008 104.655 300.049 104.933 300.131C105.214 300.209 105.464 300.336 105.683 300.512C105.901 300.684 106.087 300.914 106.239 301.203C106.396 301.488 106.515 301.838 106.597 302.252C106.679 302.666 106.72 303.152 106.72 303.711ZM105.63 305.188V303.529C105.63 303.146 105.606 302.811 105.56 302.521C105.517 302.229 105.452 301.979 105.366 301.771C105.28 301.564 105.171 301.396 105.038 301.268C104.909 301.139 104.759 301.045 104.587 300.986C104.419 300.924 104.23 300.893 104.019 300.893C103.761 300.893 103.532 300.941 103.333 301.039C103.134 301.133 102.966 301.283 102.829 301.49C102.696 301.697 102.595 301.969 102.524 302.305C102.454 302.641 102.419 303.049 102.419 303.529V305.188C102.419 305.57 102.44 305.908 102.483 306.201C102.53 306.494 102.599 306.748 102.689 306.963C102.778 307.174 102.888 307.348 103.017 307.484C103.146 307.621 103.294 307.723 103.462 307.789C103.634 307.852 103.823 307.883 104.03 307.883C104.296 307.883 104.528 307.832 104.728 307.73C104.927 307.629 105.093 307.471 105.226 307.256C105.362 307.037 105.464 306.758 105.53 306.418C105.597 306.074 105.63 305.664 105.63 305.188Z" fill="#A4A4A4"/>
<path d="M150.1 300.078V308.656H149.016V301.432L146.83 302.229V301.25L149.93 300.078H150.1ZM156.85 300.078V308.656H155.766V301.432L153.58 302.229V301.25L156.68 300.078H156.85ZM160.107 308.082C160.107 307.898 160.164 307.744 160.277 307.619C160.395 307.49 160.562 307.426 160.781 307.426C161 307.426 161.166 307.49 161.279 307.619C161.396 307.744 161.455 307.898 161.455 308.082C161.455 308.262 161.396 308.414 161.279 308.539C161.166 308.664 161 308.727 160.781 308.727C160.562 308.727 160.395 308.664 160.277 308.539C160.164 308.414 160.107 308.262 160.107 308.082ZM160.113 302.908C160.113 302.725 160.17 302.57 160.283 302.445C160.4 302.316 160.568 302.252 160.787 302.252C161.006 302.252 161.172 302.316 161.285 302.445C161.402 302.57 161.461 302.725 161.461 302.908C161.461 303.088 161.402 303.24 161.285 303.365C161.172 303.49 161.006 303.553 160.787 303.553C160.568 303.553 160.4 303.49 160.283 303.365C160.17 303.24 160.113 303.088 160.113 302.908ZM164.525 303.857H165.299C165.678 303.857 165.99 303.795 166.236 303.67C166.486 303.541 166.672 303.367 166.793 303.148C166.918 302.926 166.98 302.676 166.98 302.398C166.98 302.07 166.926 301.795 166.816 301.572C166.707 301.35 166.543 301.182 166.324 301.068C166.105 300.955 165.828 300.898 165.492 300.898C165.188 300.898 164.918 300.959 164.684 301.08C164.453 301.197 164.271 301.365 164.139 301.584C164.01 301.803 163.945 302.061 163.945 302.357H162.861C162.861 301.924 162.971 301.529 163.189 301.174C163.408 300.818 163.715 300.535 164.109 300.324C164.508 300.113 164.969 300.008 165.492 300.008C166.008 300.008 166.459 300.1 166.846 300.283C167.232 300.463 167.533 300.732 167.748 301.092C167.963 301.447 168.07 301.891 168.07 302.422C168.07 302.637 168.02 302.867 167.918 303.113C167.82 303.355 167.666 303.582 167.455 303.793C167.248 304.004 166.979 304.178 166.646 304.314C166.314 304.447 165.916 304.514 165.451 304.514H164.525V303.857ZM164.525 304.748V304.098H165.451C165.994 304.098 166.443 304.162 166.799 304.291C167.154 304.42 167.434 304.592 167.637 304.807C167.844 305.021 167.988 305.258 168.07 305.516C168.156 305.77 168.199 306.023 168.199 306.277C168.199 306.676 168.131 307.029 167.994 307.338C167.861 307.646 167.672 307.908 167.426 308.123C167.184 308.338 166.898 308.5 166.57 308.609C166.242 308.719 165.885 308.773 165.498 308.773C165.127 308.773 164.777 308.721 164.449 308.615C164.125 308.51 163.838 308.357 163.588 308.158C163.338 307.955 163.143 307.707 163.002 307.414C162.861 307.117 162.791 306.779 162.791 306.4H163.875C163.875 306.697 163.939 306.957 164.068 307.18C164.201 307.402 164.389 307.576 164.631 307.701C164.877 307.822 165.166 307.883 165.498 307.883C165.83 307.883 166.115 307.826 166.354 307.713C166.596 307.596 166.781 307.42 166.91 307.186C167.043 306.951 167.109 306.656 167.109 306.301C167.109 305.945 167.035 305.654 166.887 305.428C166.738 305.197 166.527 305.027 166.254 304.918C165.984 304.805 165.666 304.748 165.299 304.748H164.525ZM175.049 303.711V305.012C175.049 305.711 174.986 306.301 174.861 306.781C174.736 307.262 174.557 307.648 174.322 307.941C174.088 308.234 173.805 308.447 173.473 308.58C173.145 308.709 172.773 308.773 172.359 308.773C172.031 308.773 171.729 308.732 171.451 308.65C171.174 308.568 170.924 308.438 170.701 308.258C170.482 308.074 170.295 307.836 170.139 307.543C169.982 307.25 169.863 306.895 169.781 306.477C169.699 306.059 169.658 305.57 169.658 305.012V303.711C169.658 303.012 169.721 302.426 169.846 301.953C169.975 301.48 170.156 301.102 170.391 300.816C170.625 300.527 170.906 300.32 171.234 300.195C171.566 300.07 171.938 300.008 172.348 300.008C172.68 300.008 172.984 300.049 173.262 300.131C173.543 300.209 173.793 300.336 174.012 300.512C174.23 300.684 174.416 300.914 174.568 301.203C174.725 301.488 174.844 301.838 174.926 302.252C175.008 302.666 175.049 303.152 175.049 303.711ZM173.959 305.188V303.529C173.959 303.146 173.936 302.811 173.889 302.521C173.846 302.229 173.781 301.979 173.695 301.771C173.609 301.564 173.5 301.396 173.367 301.268C173.238 301.139 173.088 301.045 172.916 300.986C172.748 300.924 172.559 300.893 172.348 300.893C172.09 300.893 171.861 300.941 171.662 301.039C171.463 301.133 171.295 301.283 171.158 301.49C171.025 301.697 170.924 301.969 170.854 302.305C170.783 302.641 170.748 303.049 170.748 303.529V305.188C170.748 305.57 170.77 305.908 170.812 306.201C170.859 306.494 170.928 306.748 171.018 306.963C171.107 307.174 171.217 307.348 171.346 307.484C171.475 307.621 171.623 307.723 171.791 307.789C171.963 307.852 172.152 307.883 172.359 307.883C172.625 307.883 172.857 307.832 173.057 307.73C173.256 307.629 173.422 307.471 173.555 307.256C173.691 307.037 173.793 306.758 173.859 306.418C173.926 306.074 173.959 305.664 173.959 305.188Z" fill="#A4A4A4"/>
<path d="M214.1 300.078V308.656H213.016V301.432L210.83 302.229V301.25L213.93 300.078H214.1ZM222.877 307.766V308.656H217.293V307.877L220.088 304.766C220.432 304.383 220.697 304.059 220.885 303.793C221.076 303.523 221.209 303.283 221.283 303.072C221.361 302.857 221.4 302.639 221.4 302.416C221.4 302.135 221.342 301.881 221.225 301.654C221.111 301.424 220.943 301.24 220.721 301.104C220.498 300.967 220.229 300.898 219.912 300.898C219.533 300.898 219.217 300.973 218.963 301.121C218.713 301.266 218.525 301.469 218.4 301.73C218.275 301.992 218.213 302.293 218.213 302.633H217.129C217.129 302.152 217.234 301.713 217.445 301.314C217.656 300.916 217.969 300.6 218.383 300.365C218.797 300.127 219.307 300.008 219.912 300.008C220.451 300.008 220.912 300.104 221.295 300.295C221.678 300.482 221.971 300.748 222.174 301.092C222.381 301.432 222.484 301.83 222.484 302.287C222.484 302.537 222.441 302.791 222.355 303.049C222.273 303.303 222.158 303.557 222.01 303.811C221.865 304.064 221.695 304.314 221.5 304.561C221.309 304.807 221.104 305.049 220.885 305.287L218.6 307.766H222.877ZM224.107 308.082C224.107 307.898 224.164 307.744 224.277 307.619C224.395 307.49 224.562 307.426 224.781 307.426C225 307.426 225.166 307.49 225.279 307.619C225.396 307.744 225.455 307.898 225.455 308.082C225.455 308.262 225.396 308.414 225.279 308.539C225.166 308.664 225 308.727 224.781 308.727C224.562 308.727 224.395 308.664 224.277 308.539C224.164 308.414 224.107 308.262 224.107 308.082ZM224.113 302.908C224.113 302.725 224.17 302.57 224.283 302.445C224.4 302.316 224.568 302.252 224.787 302.252C225.006 302.252 225.172 302.316 225.285 302.445C225.402 302.57 225.461 302.725 225.461 302.908C225.461 303.088 225.402 303.24 225.285 303.365C225.172 303.49 225.006 303.553 224.787 303.553C224.568 303.553 224.4 303.49 224.283 303.365C224.17 303.24 224.113 303.088 224.113 302.908ZM232.299 303.711V305.012C232.299 305.711 232.236 306.301 232.111 306.781C231.986 307.262 231.807 307.648 231.572 307.941C231.338 308.234 231.055 308.447 230.723 308.58C230.395 308.709 230.023 308.773 229.609 308.773C229.281 308.773 228.979 308.732 228.701 308.65C228.424 308.568 228.174 308.438 227.951 308.258C227.732 308.074 227.545 307.836 227.389 307.543C227.232 307.25 227.113 306.895 227.031 306.477C226.949 306.059 226.908 305.57 226.908 305.012V303.711C226.908 303.012 226.971 302.426 227.096 301.953C227.225 301.48 227.406 301.102 227.641 300.816C227.875 300.527 228.156 300.32 228.484 300.195C228.816 300.07 229.188 300.008 229.598 300.008C229.93 300.008 230.234 300.049 230.512 300.131C230.793 300.209 231.043 300.336 231.262 300.512C231.48 300.684 231.666 300.914 231.818 301.203C231.975 301.488 232.094 301.838 232.176 302.252C232.258 302.666 232.299 303.152 232.299 303.711ZM231.209 305.188V303.529C231.209 303.146 231.186 302.811 231.139 302.521C231.096 302.229 231.031 301.979 230.945 301.771C230.859 301.564 230.75 301.396 230.617 301.268C230.488 301.139 230.338 301.045 230.166 300.986C229.998 300.924 229.809 300.893 229.598 300.893C229.34 300.893 229.111 300.941 228.912 301.039C228.713 301.133 228.545 301.283 228.408 301.49C228.275 301.697 228.174 301.969 228.104 302.305C228.033 302.641 227.998 303.049 227.998 303.529V305.188C227.998 305.57 228.02 305.908 228.062 306.201C228.109 306.494 228.178 306.748 228.268 306.963C228.357 307.174 228.467 307.348 228.596 307.484C228.725 307.621 228.873 307.723 229.041 307.789C229.213 307.852 229.402 307.883 229.609 307.883C229.875 307.883 230.107 307.832 230.307 307.73C230.506 307.629 230.672 307.471 230.805 307.256C230.941 307.037 231.043 306.758 231.109 306.418C231.176 306.074 231.209 305.664 231.209 305.188ZM239.049 303.711V305.012C239.049 305.711 238.986 306.301 238.861 306.781C238.736 307.262 238.557 307.648 238.322 307.941C238.088 308.234 237.805 308.447 237.473 308.58C237.145 308.709 236.773 308.773 236.359 308.773C236.031 308.773 235.729 308.732 235.451 308.65C235.174 308.568 234.924 308.438 234.701 308.258C234.482 308.074 234.295 307.836 234.139 307.543C233.982 307.25 233.863 306.895 233.781 306.477C233.699 306.059 233.658 305.57 233.658 305.012V303.711C233.658 303.012 233.721 302.426 233.846 301.953C233.975 301.48 234.156 301.102 234.391 300.816C234.625 300.527 234.906 300.32 235.234 300.195C235.566 300.07 235.938 300.008 236.348 300.008C236.68 300.008 236.984 300.049 237.262 300.131C237.543 300.209 237.793 300.336 238.012 300.512C238.23 300.684 238.416 300.914 238.568 301.203C238.725 301.488 238.844 301.838 238.926 302.252C239.008 302.666 239.049 303.152 239.049 303.711ZM237.959 305.188V303.529C237.959 303.146 237.936 302.811 237.889 302.521C237.846 302.229 237.781 301.979 237.695 301.771C237.609 301.564 237.5 301.396 237.367 301.268C237.238 301.139 237.088 301.045 236.916 300.986C236.748 300.924 236.559 300.893 236.348 300.893C236.09 300.893 235.861 300.941 235.662 301.039C235.463 301.133 235.295 301.283 235.158 301.49C235.025 301.697 234.924 301.969 234.854 302.305C234.783 302.641 234.748 303.049 234.748 303.529V305.188C234.748 305.57 234.77 305.908 234.812 306.201C234.859 306.494 234.928 306.748 235.018 306.963C235.107 307.174 235.217 307.348 235.346 307.484C235.475 307.621 235.623 307.723 235.791 307.789C235.963 307.852 236.152 307.883 236.359 307.883C236.625 307.883 236.857 307.832 237.057 307.73C237.256 307.629 237.422 307.471 237.555 307.256C237.691 307.037 237.793 306.758 237.859 306.418C237.926 306.074 237.959 305.664 237.959 305.188Z" fill="#A4A4A4"/>
<path d="M279.893 303.711V305.012C279.893 305.711 279.83 306.301 279.705 306.781C279.58 307.262 279.4 307.648 279.166 307.941C278.932 308.234 278.648 308.447 278.316 308.58C277.988 308.709 277.617 308.773 277.203 308.773C276.875 308.773 276.572 308.732 276.295 308.65C276.018 308.568 275.768 308.438 275.545 308.258C275.326 308.074 275.139 307.836 274.982 307.543C274.826 307.25 274.707 306.895 274.625 306.477C274.543 306.059 274.502 305.57 274.502 305.012V303.711C274.502 303.012 274.564 302.426 274.689 301.953C274.818 301.48 275 301.102 275.234 300.816C275.469 300.527 275.75 300.32 276.078 300.195C276.41 300.07 276.781 300.008 277.191 300.008C277.523 300.008 277.828 300.049 278.105 300.131C278.387 300.209 278.637 300.336 278.855 300.512C279.074 300.684 279.26 300.914 279.412 301.203C279.568 301.488 279.688 301.838 279.77 302.252C279.852 302.666 279.893 303.152 279.893 303.711ZM278.803 305.188V303.529C278.803 303.146 278.779 302.811 278.732 302.521C278.689 302.229 278.625 301.979 278.539 301.771C278.453 301.564 278.344 301.396 278.211 301.268C278.082 301.139 277.932 301.045 277.76 300.986C277.592 300.924 277.402 300.893 277.191 300.893C276.934 300.893 276.705 300.941 276.506 301.039C276.307 301.133 276.139 301.283 276.002 301.49C275.869 301.697 275.768 301.969 275.697 302.305C275.627 302.641 275.592 303.049 275.592 303.529V305.188C275.592 305.57 275.613 305.908 275.656 306.201C275.703 306.494 275.771 306.748 275.861 306.963C275.951 307.174 276.061 307.348 276.189 307.484C276.318 307.621 276.467 307.723 276.635 307.789C276.807 307.852 276.996 307.883 277.203 307.883C277.469 307.883 277.701 307.832 277.9 307.73C278.1 307.629 278.266 307.471 278.398 307.256C278.535 307.037 278.637 306.758 278.703 306.418C278.77 306.074 278.803 305.664 278.803 305.188ZM284.85 300.078V308.656H283.766V301.432L281.58 302.229V301.25L284.68 300.078H284.85ZM288.107 308.082C288.107 307.898 288.164 307.744 288.277 307.619C288.395 307.49 288.562 307.426 288.781 307.426C289 307.426 289.166 307.49 289.279 307.619C289.396 307.744 289.455 307.898 289.455 308.082C289.455 308.262 289.396 308.414 289.279 308.539C289.166 308.664 289 308.727 288.781 308.727C288.562 308.727 288.395 308.664 288.277 308.539C288.164 308.414 288.107 308.262 288.107 308.082ZM288.113 302.908C288.113 302.725 288.17 302.57 288.283 302.445C288.4 302.316 288.568 302.252 288.787 302.252C289.006 302.252 289.172 302.316 289.285 302.445C289.402 302.57 289.461 302.725 289.461 302.908C289.461 303.088 289.402 303.24 289.285 303.365C289.172 303.49 289.006 303.553 288.787 303.553C288.568 303.553 288.4 303.49 288.283 303.365C288.17 303.24 288.113 303.088 288.113 302.908ZM296.299 303.711V305.012C296.299 305.711 296.236 306.301 296.111 306.781C295.986 307.262 295.807 307.648 295.572 307.941C295.338 308.234 295.055 308.447 294.723 308.58C294.395 308.709 294.023 308.773 293.609 308.773C293.281 308.773 292.979 308.732 292.701 308.65C292.424 308.568 292.174 308.438 291.951 308.258C291.732 308.074 291.545 307.836 291.389 307.543C291.232 307.25 291.113 306.895 291.031 306.477C290.949 306.059 290.908 305.57 290.908 305.012V303.711C290.908 303.012 290.971 302.426 291.096 301.953C291.225 301.48 291.406 301.102 291.641 300.816C291.875 300.527 292.156 300.32 292.484 300.195C292.816 300.07 293.188 300.008 293.598 300.008C293.93 300.008 294.234 300.049 294.512 300.131C294.793 300.209 295.043 300.336 295.262 300.512C295.48 300.684 295.666 300.914 295.818 301.203C295.975 301.488 296.094 301.838 296.176 302.252C296.258 302.666 296.299 303.152 296.299 303.711ZM295.209 305.188V303.529C295.209 303.146 295.186 302.811 295.139 302.521C295.096 302.229 295.031 301.979 294.945 301.771C294.859 301.564 294.75 301.396 294.617 301.268C294.488 301.139 294.338 301.045 294.166 300.986C293.998 300.924 293.809 300.893 293.598 300.893C293.34 300.893 293.111 300.941 292.912 301.039C292.713 301.133 292.545 301.283 292.408 301.49C292.275 301.697 292.174 301.969 292.104 302.305C292.033 302.641 291.998 303.049 291.998 303.529V305.188C291.998 305.57 292.02 305.908 292.062 306.201C292.109 306.494 292.178 306.748 292.268 306.963C292.357 307.174 292.467 307.348 292.596 307.484C292.725 307.621 292.873 307.723 293.041 307.789C293.213 307.852 293.402 307.883 293.609 307.883C293.875 307.883 294.107 307.832 294.307 307.73C294.506 307.629 294.672 307.471 294.805 307.256C294.941 307.037 295.043 306.758 295.109 306.418C295.176 306.074 295.209 305.664 295.209 305.188ZM303.049 303.711V305.012C303.049 305.711 302.986 306.301 302.861 306.781C302.736 307.262 302.557 307.648 302.322 307.941C302.088 308.234 301.805 308.447 301.473 308.58C301.145 308.709 300.773 308.773 300.359 308.773C300.031 308.773 299.729 308.732 299.451 308.65C299.174 308.568 298.924 308.438 298.701 308.258C298.482 308.074 298.295 307.836 298.139 307.543C297.982 307.25 297.863 306.895 297.781 306.477C297.699 306.059 297.658 305.57 297.658 305.012V303.711C297.658 303.012 297.721 302.426 297.846 301.953C297.975 301.48 298.156 301.102 298.391 300.816C298.625 300.527 298.906 300.32 299.234 300.195C299.566 300.07 299.938 300.008 300.348 300.008C300.68 300.008 300.984 300.049 301.262 300.131C301.543 300.209 301.793 300.336 302.012 300.512C302.23 300.684 302.416 300.914 302.568 301.203C302.725 301.488 302.844 301.838 302.926 302.252C303.008 302.666 303.049 303.152 303.049 303.711ZM301.959 305.188V303.529C301.959 303.146 301.936 302.811 301.889 302.521C301.846 302.229 301.781 301.979 301.695 301.771C301.609 301.564 301.5 301.396 301.367 301.268C301.238 301.139 301.088 301.045 300.916 300.986C300.748 300.924 300.559 300.893 300.348 300.893C300.09 300.893 299.861 300.941 299.662 301.039C299.463 301.133 299.295 301.283 299.158 301.49C299.025 301.697 298.924 301.969 298.854 302.305C298.783 302.641 298.748 303.049 298.748 303.529V305.188C298.748 305.57 298.77 305.908 298.812 306.201C298.859 306.494 298.928 306.748 299.018 306.963C299.107 307.174 299.217 307.348 299.346 307.484C299.475 307.621 299.623 307.723 299.791 307.789C299.963 307.852 300.152 307.883 300.359 307.883C300.625 307.883 300.857 307.832 301.057 307.73C301.256 307.629 301.422 307.471 301.555 307.256C301.691 307.037 301.793 306.758 301.859 306.418C301.926 306.074 301.959 305.664 301.959 305.188Z" fill="#A4A4A4"/>
<path d="M343.846 303.711V305.012C343.846 305.711 343.783 306.301 343.658 306.781C343.533 307.262 343.354 307.648 343.119 307.941C342.885 308.234 342.602 308.447 342.27 308.58C341.941 308.709 341.57 308.773 341.156 308.773C340.828 308.773 340.525 308.732 340.248 308.65C339.971 308.568 339.721 308.438 339.498 308.258C339.279 308.074 339.092 307.836 338.936 307.543C338.779 307.25 338.66 306.895 338.578 306.477C338.496 306.059 338.455 305.57 338.455 305.012V303.711C338.455 303.012 338.518 302.426 338.643 301.953C338.771 301.48 338.953 301.102 339.188 300.816C339.422 300.527 339.703 300.32 340.031 300.195C340.363 300.07 340.734 300.008 341.145 300.008C341.477 300.008 341.781 300.049 342.059 300.131C342.34 300.209 342.59 300.336 342.809 300.512C343.027 300.684 343.213 300.914 343.365 301.203C343.521 301.488 343.641 301.838 343.723 302.252C343.805 302.666 343.846 303.152 343.846 303.711ZM342.756 305.188V303.529C342.756 303.146 342.732 302.811 342.686 302.521C342.643 302.229 342.578 301.979 342.492 301.771C342.406 301.564 342.297 301.396 342.164 301.268C342.035 301.139 341.885 301.045 341.713 300.986C341.545 300.924 341.355 300.893 341.145 300.893C340.887 300.893 340.658 300.941 340.459 301.039C340.26 301.133 340.092 301.283 339.955 301.49C339.822 301.697 339.721 301.969 339.65 302.305C339.58 302.641 339.545 303.049 339.545 303.529V305.188C339.545 305.57 339.566 305.908 339.609 306.201C339.656 306.494 339.725 306.748 339.814 306.963C339.904 307.174 340.014 307.348 340.143 307.484C340.271 307.621 340.42 307.723 340.588 307.789C340.76 307.852 340.949 307.883 341.156 307.883C341.422 307.883 341.654 307.832 341.854 307.73C342.053 307.629 342.219 307.471 342.352 307.256C342.488 307.037 342.59 306.758 342.656 306.418C342.723 306.074 342.756 305.664 342.756 305.188ZM348.803 300.078V308.656H347.719V301.432L345.533 302.229V301.25L348.633 300.078H348.803ZM352.061 308.082C352.061 307.898 352.117 307.744 352.23 307.619C352.348 307.49 352.516 307.426 352.734 307.426C352.953 307.426 353.119 307.49 353.232 307.619C353.35 307.744 353.408 307.898 353.408 308.082C353.408 308.262 353.35 308.414 353.232 308.539C353.119 308.664 352.953 308.727 352.734 308.727C352.516 308.727 352.348 308.664 352.23 308.539C352.117 308.414 352.061 308.262 352.061 308.082ZM352.066 302.908C352.066 302.725 352.123 302.57 352.236 302.445C352.354 302.316 352.521 302.252 352.74 302.252C352.959 302.252 353.125 302.316 353.238 302.445C353.355 302.57 353.414 302.725 353.414 302.908C353.414 303.088 353.355 303.24 353.238 303.365C353.125 303.49 352.959 303.553 352.74 303.553C352.521 303.553 352.354 303.49 352.236 303.365C352.123 303.24 352.066 303.088 352.066 302.908ZM356.479 303.857H357.252C357.631 303.857 357.943 303.795 358.189 303.67C358.439 303.541 358.625 303.367 358.746 303.148C358.871 302.926 358.934 302.676 358.934 302.398C358.934 302.07 358.879 301.795 358.77 301.572C358.66 301.35 358.496 301.182 358.277 301.068C358.059 300.955 357.781 300.898 357.445 300.898C357.141 300.898 356.871 300.959 356.637 301.08C356.406 301.197 356.225 301.365 356.092 301.584C355.963 301.803 355.898 302.061 355.898 302.357H354.814C354.814 301.924 354.924 301.529 355.143 301.174C355.361 300.818 355.668 300.535 356.062 300.324C356.461 300.113 356.922 300.008 357.445 300.008C357.961 300.008 358.412 300.1 358.799 300.283C359.186 300.463 359.486 300.732 359.701 301.092C359.916 301.447 360.023 301.891 360.023 302.422C360.023 302.637 359.973 302.867 359.871 303.113C359.773 303.355 359.619 303.582 359.408 303.793C359.201 304.004 358.932 304.178 358.6 304.314C358.268 304.447 357.869 304.514 357.404 304.514H356.479V303.857ZM356.479 304.748V304.098H357.404C357.947 304.098 358.396 304.162 358.752 304.291C359.107 304.42 359.387 304.592 359.59 304.807C359.797 305.021 359.941 305.258 360.023 305.516C360.109 305.77 360.152 306.023 360.152 306.277C360.152 306.676 360.084 307.029 359.947 307.338C359.814 307.646 359.625 307.908 359.379 308.123C359.137 308.338 358.852 308.5 358.523 308.609C358.195 308.719 357.838 308.773 357.451 308.773C357.08 308.773 356.73 308.721 356.402 308.615C356.078 308.51 355.791 308.357 355.541 308.158C355.291 307.955 355.096 307.707 354.955 307.414C354.814 307.117 354.744 306.779 354.744 306.4H355.828C355.828 306.697 355.893 306.957 356.021 307.18C356.154 307.402 356.342 307.576 356.584 307.701C356.83 307.822 357.119 307.883 357.451 307.883C357.783 307.883 358.068 307.826 358.307 307.713C358.549 307.596 358.734 307.42 358.863 307.186C358.996 306.951 359.062 306.656 359.062 306.301C359.062 305.945 358.988 305.654 358.84 305.428C358.691 305.197 358.48 305.027 358.207 304.918C357.938 304.805 357.619 304.748 357.252 304.748H356.479ZM367.002 303.711V305.012C367.002 305.711 366.939 306.301 366.814 306.781C366.689 307.262 366.51 307.648 366.275 307.941C366.041 308.234 365.758 308.447 365.426 308.58C365.098 308.709 364.727 308.773 364.312 308.773C363.984 308.773 363.682 308.732 363.404 308.65C363.127 308.568 362.877 308.438 362.654 308.258C362.436 308.074 362.248 307.836 362.092 307.543C361.936 307.25 361.816 306.895 361.734 306.477C361.652 306.059 361.611 305.57 361.611 305.012V303.711C361.611 303.012 361.674 302.426 361.799 301.953C361.928 301.48 362.109 301.102 362.344 300.816C362.578 300.527 362.859 300.32 363.188 300.195C363.52 300.07 363.891 300.008 364.301 300.008C364.633 300.008 364.938 300.049 365.215 300.131C365.496 300.209 365.746 300.336 365.965 300.512C366.184 300.684 366.369 300.914 366.521 301.203C366.678 301.488 366.797 301.838 366.879 302.252C366.961 302.666 367.002 303.152 367.002 303.711ZM365.912 305.188V303.529C365.912 303.146 365.889 302.811 365.842 302.521C365.799 302.229 365.734 301.979 365.648 301.771C365.562 301.564 365.453 301.396 365.32 301.268C365.191 301.139 365.041 301.045 364.869 300.986C364.701 300.924 364.512 300.893 364.301 300.893C364.043 300.893 363.814 300.941 363.615 301.039C363.416 301.133 363.248 301.283 363.111 301.49C362.979 301.697 362.877 301.969 362.807 302.305C362.736 302.641 362.701 303.049 362.701 303.529V305.188C362.701 305.57 362.723 305.908 362.766 306.201C362.812 306.494 362.881 306.748 362.971 306.963C363.061 307.174 363.17 307.348 363.299 307.484C363.428 307.621 363.576 307.723 363.744 307.789C363.916 307.852 364.105 307.883 364.312 307.883C364.578 307.883 364.811 307.832 365.01 307.73C365.209 307.629 365.375 307.471 365.508 307.256C365.645 307.037 365.746 306.758 365.812 306.418C365.879 306.074 365.912 305.664 365.912 305.188Z" fill="#A4A4A4"/>
<path d="M407.846 303.711V305.012C407.846 305.711 407.783 306.301 407.658 306.781C407.533 307.262 407.354 307.648 407.119 307.941C406.885 308.234 406.602 308.447 406.27 308.58C405.941 308.709 405.57 308.773 405.156 308.773C404.828 308.773 404.525 308.732 404.248 308.65C403.971 308.568 403.721 308.438 403.498 308.258C403.279 308.074 403.092 307.836 402.936 307.543C402.779 307.25 402.66 306.895 402.578 306.477C402.496 306.059 402.455 305.57 402.455 305.012V303.711C402.455 303.012 402.518 302.426 402.643 301.953C402.771 301.48 402.953 301.102 403.188 300.816C403.422 300.527 403.703 300.32 404.031 300.195C404.363 300.07 404.734 300.008 405.145 300.008C405.477 300.008 405.781 300.049 406.059 300.131C406.34 300.209 406.59 300.336 406.809 300.512C407.027 300.684 407.213 300.914 407.365 301.203C407.521 301.488 407.641 301.838 407.723 302.252C407.805 302.666 407.846 303.152 407.846 303.711ZM406.756 305.188V303.529C406.756 303.146 406.732 302.811 406.686 302.521C406.643 302.229 406.578 301.979 406.492 301.771C406.406 301.564 406.297 301.396 406.164 301.268C406.035 301.139 405.885 301.045 405.713 300.986C405.545 300.924 405.355 300.893 405.145 300.893C404.887 300.893 404.658 300.941 404.459 301.039C404.26 301.133 404.092 301.283 403.955 301.49C403.822 301.697 403.721 301.969 403.65 302.305C403.58 302.641 403.545 303.049 403.545 303.529V305.188C403.545 305.57 403.566 305.908 403.609 306.201C403.656 306.494 403.725 306.748 403.814 306.963C403.904 307.174 404.014 307.348 404.143 307.484C404.271 307.621 404.42 307.723 404.588 307.789C404.76 307.852 404.949 307.883 405.156 307.883C405.422 307.883 405.654 307.832 405.854 307.73C406.053 307.629 406.219 307.471 406.352 307.256C406.488 307.037 406.59 306.758 406.656 306.418C406.723 306.074 406.756 305.664 406.756 305.188ZM414.83 307.766V308.656H409.246V307.877L412.041 304.766C412.385 304.383 412.65 304.059 412.838 303.793C413.029 303.523 413.162 303.283 413.236 303.072C413.314 302.857 413.354 302.639 413.354 302.416C413.354 302.135 413.295 301.881 413.178 301.654C413.064 301.424 412.896 301.24 412.674 301.104C412.451 300.967 412.182 300.898 411.865 300.898C411.486 300.898 411.17 300.973 410.916 301.121C410.666 301.266 410.479 301.469 410.354 301.73C410.229 301.992 410.166 302.293 410.166 302.633H409.082C409.082 302.152 409.188 301.713 409.398 301.314C409.609 300.916 409.922 300.6 410.336 300.365C410.75 300.127 411.26 300.008 411.865 300.008C412.404 300.008 412.865 300.104 413.248 300.295C413.631 300.482 413.924 300.748 414.127 301.092C414.334 301.432 414.438 301.83 414.438 302.287C414.438 302.537 414.395 302.791 414.309 303.049C414.227 303.303 414.111 303.557 413.963 303.811C413.818 304.064 413.648 304.314 413.453 304.561C413.262 304.807 413.057 305.049 412.838 305.287L410.553 307.766H414.83ZM416.061 308.082C416.061 307.898 416.117 307.744 416.23 307.619C416.348 307.49 416.516 307.426 416.734 307.426C416.953 307.426 417.119 307.49 417.232 307.619C417.35 307.744 417.408 307.898 417.408 308.082C417.408 308.262 417.35 308.414 417.232 308.539C417.119 308.664 416.953 308.727 416.734 308.727C416.516 308.727 416.348 308.664 416.23 308.539C416.117 308.414 416.061 308.262 416.061 308.082ZM416.066 302.908C416.066 302.725 416.123 302.57 416.236 302.445C416.354 302.316 416.521 302.252 416.74 302.252C416.959 302.252 417.125 302.316 417.238 302.445C417.355 302.57 417.414 302.725 417.414 302.908C417.414 303.088 417.355 303.24 417.238 303.365C417.125 303.49 416.959 303.553 416.74 303.553C416.521 303.553 416.354 303.49 416.236 303.365C416.123 303.24 416.066 303.088 416.066 302.908ZM424.252 303.711V305.012C424.252 305.711 424.189 306.301 424.064 306.781C423.939 307.262 423.76 307.648 423.525 307.941C423.291 308.234 423.008 308.447 422.676 308.58C422.348 308.709 421.977 308.773 421.562 308.773C421.234 308.773 420.932 308.732 420.654 308.65C420.377 308.568 420.127 308.438 419.904 308.258C419.686 308.074 419.498 307.836 419.342 307.543C419.186 307.25 419.066 306.895 418.984 306.477C418.902 306.059 418.861 305.57 418.861 305.012V303.711C418.861 303.012 418.924 302.426 419.049 301.953C419.178 301.48 419.359 301.102 419.594 300.816C419.828 300.527 420.109 300.32 420.438 300.195C420.77 300.07 421.141 300.008 421.551 300.008C421.883 300.008 422.188 300.049 422.465 300.131C422.746 300.209 422.996 300.336 423.215 300.512C423.434 300.684 423.619 300.914 423.771 301.203C423.928 301.488 424.047 301.838 424.129 302.252C424.211 302.666 424.252 303.152 424.252 303.711ZM423.162 305.188V303.529C423.162 303.146 423.139 302.811 423.092 302.521C423.049 302.229 422.984 301.979 422.898 301.771C422.812 301.564 422.703 301.396 422.57 301.268C422.441 301.139 422.291 301.045 422.119 300.986C421.951 300.924 421.762 300.893 421.551 300.893C421.293 300.893 421.064 300.941 420.865 301.039C420.666 301.133 420.498 301.283 420.361 301.49C420.229 301.697 420.127 301.969 420.057 302.305C419.986 302.641 419.951 303.049 419.951 303.529V305.188C419.951 305.57 419.973 305.908 420.016 306.201C420.062 306.494 420.131 306.748 420.221 306.963C420.311 307.174 420.42 307.348 420.549 307.484C420.678 307.621 420.826 307.723 420.994 307.789C421.166 307.852 421.355 307.883 421.562 307.883C421.828 307.883 422.061 307.832 422.26 307.73C422.459 307.629 422.625 307.471 422.758 307.256C422.895 307.037 422.996 306.758 423.062 306.418C423.129 306.074 423.162 305.664 423.162 305.188ZM431.002 303.711V305.012C431.002 305.711 430.939 306.301 430.814 306.781C430.689 307.262 430.51 307.648 430.275 307.941C430.041 308.234 429.758 308.447 429.426 308.58C429.098 308.709 428.727 308.773 428.312 308.773C427.984 308.773 427.682 308.732 427.404 308.65C427.127 308.568 426.877 308.438 426.654 308.258C426.436 308.074 426.248 307.836 426.092 307.543C425.936 307.25 425.816 306.895 425.734 306.477C425.652 306.059 425.611 305.57 425.611 305.012V303.711C425.611 303.012 425.674 302.426 425.799 301.953C425.928 301.48 426.109 301.102 426.344 300.816C426.578 300.527 426.859 300.32 427.188 300.195C427.52 300.07 427.891 300.008 428.301 300.008C428.633 300.008 428.938 300.049 429.215 300.131C429.496 300.209 429.746 300.336 429.965 300.512C430.184 300.684 430.369 300.914 430.521 301.203C430.678 301.488 430.797 301.838 430.879 302.252C430.961 302.666 431.002 303.152 431.002 303.711ZM429.912 305.188V303.529C429.912 303.146 429.889 302.811 429.842 302.521C429.799 302.229 429.734 301.979 429.648 301.771C429.562 301.564 429.453 301.396 429.32 301.268C429.191 301.139 429.041 301.045 428.869 300.986C428.701 300.924 428.512 300.893 428.301 300.893C428.043 300.893 427.814 300.941 427.615 301.039C427.416 301.133 427.248 301.283 427.111 301.49C426.979 301.697 426.877 301.969 426.807 302.305C426.736 302.641 426.701 303.049 426.701 303.529V305.188C426.701 305.57 426.723 305.908 426.766 306.201C426.812 306.494 426.881 306.748 426.971 306.963C427.061 307.174 427.17 307.348 427.299 307.484C427.428 307.621 427.576 307.723 427.744 307.789C427.916 307.852 428.105 307.883 428.312 307.883C428.578 307.883 428.811 307.832 429.01 307.73C429.209 307.629 429.375 307.471 429.508 307.256C429.645 307.037 429.746 306.758 429.812 306.418C429.879 306.074 429.912 305.664 429.912 305.188Z" fill="#A4A4A4"/>
<path d="M2.23953 12.6562V5.38425L0.799527 5.74425V5.02425L2.57553 4.25625H3.25953V12.6562H2.23953ZM8.85781 12.6562V10.8562H4.59781V10.0762L8.67781 4.25625H9.85381V9.96825H11.1018V10.8562H9.85381V12.6562H8.85781ZM5.71381 9.96825H8.90581V5.37225L5.71381 9.96825Z" fill="#A4A4A4"/>
<path d="M2.73953 52.6562V45.3842L1.29953 45.7442V45.0242L3.07553 44.2562H3.75953V52.6562H2.73953ZM5.42181 52.6562V51.9482C5.98981 51.5002 6.52981 51.0482 7.04181 50.5922C7.56181 50.1362 8.02181 49.6842 8.42181 49.2362C8.82181 48.7802 9.13381 48.3362 9.35781 47.9042C9.58981 47.4722 9.70581 47.0562 9.70581 46.6562C9.70581 46.3602 9.65381 46.0882 9.54981 45.8402C9.44581 45.5842 9.27781 45.3762 9.04581 45.2162C8.82181 45.0562 8.51781 44.9762 8.13381 44.9762C7.75781 44.9762 7.44581 45.0602 7.19781 45.2282C6.94981 45.3882 6.76181 45.6042 6.63381 45.8763C6.51381 46.1402 6.45381 46.4322 6.45381 46.7522H5.48181C5.48981 46.2002 5.60581 45.7282 5.82981 45.3362C6.06181 44.9362 6.37781 44.6322 6.77781 44.4242C7.17781 44.2162 7.63381 44.1122 8.14581 44.1122C8.64981 44.1122 9.09381 44.2082 9.47781 44.4002C9.86181 44.5842 10.1618 44.8602 10.3778 45.2282C10.6018 45.5962 10.7138 46.0602 10.7138 46.6202C10.7138 47.0122 10.6298 47.4042 10.4618 47.7962C10.3018 48.1882 10.0858 48.5722 9.81381 48.9482C9.54181 49.3162 9.23781 49.6722 8.90181 50.0162C8.57381 50.3602 8.23381 50.6842 7.88181 50.9882C7.53781 51.2922 7.21381 51.5682 6.90981 51.8162H11.0018V52.6562H5.42181Z" fill="#A4A4A4"/>
<path d="M2.23953 92.6562V85.3842L0.799527 85.7442V85.0242L2.57553 84.2562H3.25953V92.6562H2.23953ZM8.26981 92.8003C7.53381 92.8003 6.90181 92.6203 6.37381 92.2603C5.84581 91.8922 5.43781 91.3842 5.14981 90.7362C4.86981 90.0802 4.72981 89.3202 4.72981 88.4562C4.72981 87.5922 4.86981 86.8362 5.14981 86.1882C5.43781 85.5322 5.84581 85.0242 6.37381 84.6642C6.90181 84.2962 7.53381 84.1122 8.26981 84.1122C9.00581 84.1122 9.63381 84.2962 10.1538 84.6642C10.6818 85.0242 11.0858 85.5322 11.3658 86.1882C11.6458 86.8362 11.7858 87.5922 11.7858 88.4562C11.7858 89.3202 11.6458 90.0802 11.3658 90.7362C11.0858 91.3842 10.6818 91.8922 10.1538 92.2603C9.63381 92.6203 9.00581 92.8003 8.26981 92.8003ZM8.26981 91.9122C8.74181 91.9122 9.16581 91.7762 9.54181 91.5042C9.91781 91.2242 10.2138 90.8282 10.4298 90.3162C10.6458 89.7962 10.7538 89.1762 10.7538 88.4562C10.7538 87.7362 10.6458 87.1202 10.4298 86.6082C10.2138 86.0882 9.91781 85.6922 9.54181 85.4202C9.16581 85.1482 8.74181 85.0122 8.26981 85.0122C7.78181 85.0122 7.34581 85.1482 6.96181 85.4202C6.58581 85.6922 6.28981 86.0882 6.07381 86.6082C5.86581 87.1202 5.76181 87.7362 5.76181 88.4562C5.76181 89.1762 5.86581 89.7962 6.07381 90.3162C6.28981 90.8282 6.58581 91.2242 6.96181 91.5042C7.34581 91.7762 7.78181 91.9122 8.26981 91.9122Z" fill="#A4A4A4"/>
<path d="M6.06353 132.8C5.51953 132.8 5.03153 132.7 4.59953 132.5C4.16753 132.292 3.82353 132.008 3.56753 131.648C3.31153 131.28 3.18353 130.856 3.18353 130.376C3.18353 130.032 3.25153 129.712 3.38753 129.416C3.52353 129.12 3.71153 128.864 3.95153 128.648C4.19953 128.424 4.48353 128.268 4.80353 128.18C4.35553 128.02 4.00753 127.772 3.75953 127.436C3.51953 127.1 3.39953 126.736 3.39953 126.344C3.39953 125.928 3.50753 125.552 3.72353 125.216C3.93953 124.88 4.24353 124.612 4.63553 124.412C5.03553 124.212 5.51153 124.112 6.06353 124.112C6.62353 124.112 7.09953 124.212 7.49153 124.412C7.89153 124.612 8.19953 124.88 8.41553 125.216C8.63153 125.552 8.73953 125.928 8.73953 126.344C8.73953 126.736 8.61553 127.1 8.36753 127.436C8.11953 127.772 7.77153 128.02 7.32353 128.18C7.65953 128.268 7.94753 128.424 8.18753 128.648C8.42753 128.864 8.61553 129.12 8.75153 129.416C8.88753 129.712 8.95553 130.032 8.95553 130.376C8.95553 130.856 8.82753 131.28 8.57153 131.648C8.31553 132.008 7.97153 132.292 7.53953 132.5C7.10753 132.7 6.61553 132.8 6.06353 132.8ZM6.06353 131.912C6.69553 131.912 7.16753 131.768 7.47953 131.48C7.79153 131.184 7.94753 130.796 7.94753 130.316C7.94753 129.772 7.77553 129.36 7.43153 129.08C7.08753 128.8 6.63153 128.66 6.06353 128.66C5.49553 128.66 5.03953 128.8 4.69553 129.08C4.35953 129.36 4.19153 129.772 4.19153 130.316C4.19153 130.796 4.34753 131.184 4.65953 131.48C4.97153 131.768 5.43953 131.912 6.06353 131.912ZM6.06353 127.82C6.56753 127.82 6.96753 127.688 7.26353 127.424C7.56753 127.16 7.71953 126.82 7.71953 126.404C7.71953 125.932 7.57153 125.576 7.27553 125.336C6.97953 125.096 6.57553 124.976 6.06353 124.976C5.55953 124.976 5.15953 125.096 4.86353 125.336C4.57553 125.576 4.43153 125.932 4.43153 126.404C4.43153 126.82 4.57553 127.16 4.86353 127.424C5.15953 127.688 5.55953 127.82 6.06353 127.82Z" fill="#A4A4A4"/>
<path d="M6.32753 172.8C5.71953 172.8 5.20753 172.688 4.79153 172.464C4.37553 172.232 4.04353 171.924 3.79553 171.54C3.54753 171.156 3.36353 170.728 3.24353 170.256C3.13153 169.776 3.07553 169.288 3.07553 168.792C3.07553 167.864 3.20353 167.052 3.45953 166.356C3.71553 165.652 4.08353 165.104 4.56353 164.712C5.05153 164.312 5.63553 164.112 6.31553 164.112C6.84353 164.112 7.29553 164.216 7.67153 164.424C8.05553 164.624 8.35953 164.896 8.58353 165.24C8.80753 165.584 8.94353 165.968 8.99153 166.392H8.05553C7.97553 165.944 7.77953 165.6 7.46753 165.36C7.16353 165.112 6.77553 164.988 6.30353 164.988C5.88753 164.988 5.51153 165.12 5.17553 165.384C4.83953 165.64 4.57153 166.032 4.37153 166.56C4.17953 167.088 4.06753 167.764 4.03553 168.588C4.03553 168.604 4.03553 168.62 4.03553 168.636C4.03553 168.652 4.03553 168.668 4.03553 168.684C4.16353 168.428 4.33953 168.196 4.56353 167.988C4.79553 167.772 5.07153 167.6 5.39153 167.472C5.71153 167.344 6.06753 167.28 6.45953 167.28C6.93953 167.28 7.38753 167.392 7.80353 167.616C8.21953 167.84 8.55553 168.156 8.81153 168.564C9.07553 168.964 9.20753 169.436 9.20753 169.98C9.20753 170.452 9.09153 170.904 8.85953 171.336C8.62753 171.768 8.29553 172.12 7.86353 172.392C7.43153 172.664 6.91953 172.8 6.32753 172.8ZM6.25553 171.912C6.62353 171.912 6.95153 171.832 7.23953 171.672C7.53553 171.504 7.76753 171.28 7.93553 171C8.10353 170.712 8.18753 170.388 8.18753 170.028C8.18753 169.652 8.10353 169.324 7.93553 169.044C7.76753 168.764 7.53553 168.548 7.23953 168.396C6.95153 168.236 6.62353 168.156 6.25553 168.156C5.88753 168.156 5.55553 168.24 5.25953 168.408C4.96353 168.576 4.72753 168.804 4.55153 169.092C4.38353 169.372 4.29953 169.688 4.29953 170.04C4.29953 170.4 4.38353 170.72 4.55153 171C4.72753 171.28 4.96353 171.504 5.25953 171.672C5.55553 171.832 5.88753 171.912 6.25553 171.912Z" fill="#A4A4A4"/>
<path d="M7.11953 212.656V210.856H2.85953V210.076L6.93953 204.256H8.11553V209.968H9.36353V210.856H8.11553V212.656H7.11953ZM3.97553 209.968H7.16753V205.372L3.97553 209.968Z" fill="#A4A4A4"/>
<path d="M3.68353 252.656V251.948C4.25153 251.5 4.79153 251.048 5.30353 250.592C5.82353 250.136 6.28353 249.684 6.68353 249.236C7.08353 248.78 7.39553 248.336 7.61953 247.904C7.85153 247.472 7.96753 247.056 7.96753 246.656C7.96753 246.36 7.91553 246.088 7.81153 245.84C7.70753 245.584 7.53953 245.376 7.30753 245.216C7.08353 245.056 6.77953 244.976 6.39553 244.976C6.01953 244.976 5.70753 245.06 5.45953 245.228C5.21153 245.388 5.02353 245.604 4.89553 245.876C4.77553 246.14 4.71553 246.432 4.71553 246.752H3.74353C3.75153 246.2 3.86753 245.728 4.09153 245.336C4.32353 244.936 4.63953 244.632 5.03953 244.424C5.43953 244.216 5.89553 244.112 6.40753 244.112C6.91153 244.112 7.35553 244.208 7.73953 244.4C8.12353 244.584 8.42353 244.86 8.63953 245.228C8.86353 245.596 8.97553 246.06 8.97553 246.62C8.97553 247.012 8.89153 247.404 8.72353 247.796C8.56353 248.188 8.34753 248.572 8.07553 248.948C7.80353 249.316 7.49953 249.672 7.16353 250.016C6.83553 250.36 6.49553 250.684 6.14353 250.988C5.79953 251.292 5.47553 251.568 5.17153 251.816H9.26353V252.656H3.68353Z" fill="#A4A4A4"/>
<path d="M6.03153 292.8C5.29553 292.8 4.66353 292.62 4.13553 292.26C3.60753 291.892 3.19953 291.384 2.91153 290.736C2.63153 290.08 2.49153 289.32 2.49153 288.456C2.49153 287.592 2.63153 286.836 2.91153 286.188C3.19953 285.532 3.60753 285.024 4.13553 284.664C4.66353 284.296 5.29553 284.112 6.03153 284.112C6.76753 284.112 7.39553 284.296 7.91553 284.664C8.44353 285.024 8.84753 285.532 9.12753 286.188C9.40753 286.836 9.54753 287.592 9.54753 288.456C9.54753 289.32 9.40753 290.08 9.12753 290.736C8.84753 291.384 8.44353 291.892 7.91553 292.26C7.39553 292.62 6.76753 292.8 6.03153 292.8ZM6.03153 291.912C6.50353 291.912 6.92753 291.776 7.30353 291.504C7.67953 291.224 7.97553 290.828 8.19153 290.316C8.40753 289.796 8.51553 289.176 8.51553 288.456C8.51553 287.736 8.40753 287.12 8.19153 286.608C7.97553 286.088 7.67953 285.692 7.30353 285.42C6.92753 285.148 6.50353 285.012 6.03153 285.012C5.54353 285.012 5.10753 285.148 4.72353 285.42C4.34753 285.692 4.05153 286.088 3.83553 286.608C3.62753 287.12 3.52353 287.736 3.52353 288.456C3.52353 289.176 3.62753 289.796 3.83553 290.316C4.05153 290.828 4.34753 291.224 4.72353 291.504C5.10753 291.776 5.54353 291.912 6.03153 291.912Z" fill="#A4A4A4"/>
<line x1="420.667" y1="9.90625" x2="15.667" y2="9.90625" stroke="#A4A4A4" stroke-width="0.5"/>
<line x1="420.667" y1="128.906" x2="15.667" y2="128.906" stroke="#A4A4A4" stroke-width="0.5"/>
<line x1="420.667" y1="87.9062" x2="15.667" y2="87.9062" stroke="#A4A4A4" stroke-width="0.5"/>
<line x1="420.667" y1="48.9062" x2="15.667" y2="48.9062" stroke="#A4A4A4" stroke-width="0.5"/>
<line x1="420.667" y1="168.906" x2="15.667" y2="168.906" stroke="#A4A4A4" stroke-width="0.5"/>
<line x1="420.667" y1="209.906" x2="15.667" y2="209.906" stroke="#A4A4A4" stroke-width="0.5"/>
<line x1="420.667" y1="248.906" x2="15.667" y2="248.906" stroke="#A4A4A4" stroke-width="0.5"/>
<line x1="420.667" y1="289.906" x2="15.667" y2="289.906" stroke="#A4A4A4" stroke-width="0.5"/>
<line x1="20.6089" y1="295.656" x2="20.6089" y2="9.65625" stroke="#A4A4A4" stroke-width="0.5"/>
<line x1="91.6089" y1="295.656" x2="91.6089" y2="9.65625" stroke="#A4A4A4" stroke-width="0.5"/>
<line x1="160.609" y1="295.656" x2="160.609" y2="9.65625" stroke="#A4A4A4" stroke-width="0.5"/>
<line x1="226.609" y1="295.656" x2="226.609" y2="9.65625" stroke="#A4A4A4" stroke-width="0.5"/>
<line x1="290.609" y1="295.656" x2="290.609" y2="9.65625" stroke="#A4A4A4" stroke-width="0.5"/>
<line x1="359.609" y1="295.656" x2="359.609" y2="9.65625" stroke="#A4A4A4" stroke-width="0.5"/>
<line x1="420.609" y1="295.656" x2="420.609" y2="9.65625" stroke="#A4A4A4" stroke-width="0.5"/>
<path d="M70.3992 230.656C51.5866 230.656 46.2564 141.932 20.8594 141.932V299.656H420V32.6562C399.306 32.6562 392.408 153.461 367.011 153.461C341.614 153.461 342.241 96.317 324.683 96.317C307.124 96.317 308.379 178.525 283.609 178.525C258.839 178.525 255.39 75.2638 237.204 75.2638C219.019 75.2638 220.9 110.854 198.952 110.854C177.004 110.854 174.809 192.059 153.802 192.059C132.794 192.059 130.913 157.471 113.982 157.471C97.0504 157.471 93.915 230.656 70.3992 230.656Z" fill="url(#paint0_linear_3158_2420)"/>
<path d="M21.7886 141.932C47.0675 141.932 52.3729 230.656 71.098 230.656C94.5044 230.656 97.6252 157.471 114.478 157.471C131.33 157.471 133.203 192.059 154.113 192.059C175.022 192.059 177.207 110.854 199.053 110.854C220.899 110.854 219.026 75.2638 237.127 75.2638C255.228 75.2638 258.661 178.525 283.316 178.525C307.97 178.525 306.722 96.317 324.199 96.317C341.676 96.317 341.051 153.461 366.33 153.461C391.609 153.461 398.475 32.6562 419.073 32.6562" stroke="#5D40ED" stroke-width="3" stroke-linecap="round"/>
<defs>
<linearGradient id="paint0_linear_3158_2420" x1="220.43" y1="32.6563" x2="220.43" y2="299.656" gradientUnits="userSpaceOnUse">
<stop stop-color="#5D40ED" stop-opacity="0.2"/>
<stop offset="1" stop-color="#5D40ED" stop-opacity="0"/>
</linearGradient>
</defs>
</svg>
